<svg data-v-fde0c5aa="" xmlns="http://www.w3.org/2000/svg" viewBox="0 0 300 300" class="iconAbove"><!----><defs data-v-fde0c5aa=""><!----></defs><rect data-v-fde0c5aa="" fill="#FEE8E9" x="0" y="0" width="300px" height="300px" class="logo-background-square"></rect><defs data-v-fde0c5aa=""><!----></defs><g data-v-fde0c5aa="" id="0cd96614-8e3d-4954-9ebe-dd73e5fc227f" fill="#371213" transform="matrix(4.741064902927989,0,0,4.741064902927989,17.866520708905558,187.1382196450022)"><path d="M9.52 9.23C9.60 9.13 9.65 9.02 9.65 8.92C9.65 8.78 9.56 8.65 9.41 8.58C9.09 8.86 8.43 9.28 7.98 9.28C7.60 9.28 7.36 9.06 7.52 8.25L9.25 0.18C9.07 0.07 8.83 0 8.58 0C8.06 0 7.52 0.24 7.38 0.90L6.64 4.37C6.03 4.42 5.22 4.48 4.51 4.48L5.31 0.77L5.43 0.77C5.75 0.77 5.92 0.49 5.92 0.22C5.92 0.08 5.87-0.06 5.73-0.14C5.12 0.20 3.93-0.42 2.77-0.42C1.12-0.42 0.45 0.59 0.45 1.47C0.45 2.17 0.87 2.80 1.58 2.80C1.78 2.80 1.97 2.76 2.18 2.66C2.02 2.46 1.90 2.16 1.90 1.85C1.90 1.19 2.37 0.48 3.64 0.48L3.71 0.48L1.46 10.43C1.61 10.54 1.88 10.61 2.20 10.61C2.72 10.61 3.26 10.37 3.40 9.72L4.31 5.43C4.98 5.42 5.89 5.28 6.50 5.07L5.75 8.58C5.40 10.22 6.24 10.61 7.08 10.61C7.90 10.61 8.71 9.98 9.52 9.23ZM12.82 3.37C10.71 3.37 9.24 6.02 9.24 8.13C9.24 9.45 9.86 10.61 11.30 10.61C13.50 10.61 14.99 7.97 14.99 5.88C14.99 4.51 14.35 3.37 12.82 3.37ZM13.13 4.44C13.71 4.44 13.94 5.01 13.94 5.77C13.94 7.24 13.05 9.39 11.94 9.39C11.45 9.39 11.03 8.92 11.03 7.69C11.03 6.31 11.86 4.44 13.13 4.44ZM20.16 8.33C20.26 8.06 20.09 7.76 19.82 7.80C19.56 8.57 18.44 9.25 17.67 9.25C17.18 9.25 16.81 8.97 16.91 8.25C16.93 8.08 16.95 7.90 16.98 7.73C18.79 4.97 19.70 2.73 19.70 1.64C19.70 0.91 19.24 0.50 18.58 0.50C16.74 0.50 15.81 3.47 15.16 8.54C14.98 10.01 15.72 10.61 16.70 10.61C17.99 10.61 19.67 9.60 20.16 8.33ZM18.68 1.43C18.83 1.43 18.91 1.50 18.91 1.74C18.91 2.21 18.40 4.20 17.16 6.48C17.64 3.53 18.21 1.43 18.68 1.43ZM20.86 1.62C20.78 2.17 21.18 2.60 21.73 2.60C22.27 2.60 22.74 2.17 22.82 1.62C22.88 1.08 22.47 0.64 21.92 0.64C21.38 0.64 20.92 1.08 20.86 1.62ZM19.59 8.95C19.32 10.22 20.13 10.61 20.83 10.61C21.77 10.61 22.71 9.97 23.37 9.23C23.45 9.13 23.49 9.02 23.49 8.92C23.49 8.78 23.41 8.65 23.25 8.58C22.90 8.93 22.30 9.28 21.78 9.28C21.42 9.28 21.20 9.03 21.36 8.25L22.22 4.20C22.33 3.67 22.05 3.43 21.55 3.43C20.96 3.43 20.45 3.72 19.98 4.10C19.70 4.33 19.80 4.76 19.98 4.87C20.10 4.76 20.19 4.70 20.26 4.70C20.38 4.70 20.44 4.83 20.40 5.05ZM32.80 0.48L32.87 0.48C30.83 7.31 29.41 9.03 28.31 9.45L28.31 9.32C28.31 9.00 28.36 8.43 28.60 7.88C28.41 7.73 28.15 7.64 27.90 7.64C27.27 7.64 26.71 7.88 26.71 8.69C26.71 9.94 27.22 10.61 27.92 10.61C29.58 10.61 31.05 8.62 32.94 2.59L32.87 4.23L32.37 10.43C32.54 10.54 32.79 10.61 33.04 10.61C33.56 10.61 33.98 10.43 34.23 9.79L37.28 2.62L36.34 8.95C36.15 10.23 36.97 10.61 37.74 10.61C38.56 10.61 39.38 10.02 40.15 9.23C40.24 9.13 40.28 9.02 40.28 8.92C40.28 8.78 40.19 8.65 40.04 8.58C39.72 8.86 39.06 9.28 38.61 9.28C38.23 9.28 38.04 9.07 38.15 8.25L39.30 0.18C39.13 0.07 38.78 0 38.53 0C38.01 0 37.58 0.27 37.32 0.90L34.08 8.22L34.58 0.77L34.59 0.77C34.92 0.77 35.08 0.49 35.08 0.22C35.08 0.08 35.03-0.06 34.89-0.14C34.29 0.20 33.10-0.42 31.93-0.42C30.28-0.42 29.61 0.59 29.61 1.47C29.61 2.17 30.03 2.80 30.74 2.80C30.94 2.80 31.14 2.76 31.35 2.66C31.18 2.46 31.07 2.16 31.07 1.85C31.07 1.19 31.53 0.48 32.80 0.48ZM43.46 3.37C41.34 3.37 39.87 6.02 39.87 8.13C39.87 9.45 40.49 10.61 41.93 10.61C44.13 10.61 45.63 7.97 45.63 5.88C45.63 4.51 44.98 3.37 43.46 3.37ZM43.76 4.44C44.34 4.44 44.58 5.01 44.58 5.77C44.58 7.24 43.68 9.39 42.57 9.39C42.08 9.39 41.66 8.92 41.66 7.69C41.66 6.31 42.49 4.44 43.76 4.44ZM48.82 4.20C48.93 3.67 48.65 3.43 48.15 3.43C47.56 3.43 47.05 3.72 46.58 4.10C46.30 4.33 46.40 4.76 46.58 4.87C46.70 4.76 46.79 4.70 46.86 4.70C46.98 4.70 47.04 4.83 47.00 5.05L45.85 10.43C46.02 10.54 46.26 10.61 46.51 10.61C47.01 10.61 47.54 10.37 47.68 9.73L47.85 8.88C48.57 5.64 49.22 5.01 49.69 5.01C49.98 5.01 50.12 5.17 50.12 5.36C50.12 5.53 50.06 5.71 49.97 5.80C50.09 5.84 50.25 5.85 50.37 5.85C51.10 5.85 51.49 5.17 51.49 4.54C51.49 3.96 51.14 3.43 50.47 3.43C49.83 3.43 49.22 3.82 48.66 4.96ZM52.65 1.62C52.57 2.17 52.98 2.60 53.52 2.60C54.07 2.60 54.53 2.17 54.61 1.62C54.67 1.08 54.26 0.64 53.72 0.64C53.17 0.64 52.71 1.08 52.65 1.62ZM51.38 8.95C51.11 10.22 51.93 10.61 52.63 10.61C53.56 10.61 54.50 9.97 55.16 9.23C55.24 9.13 55.29 9.02 55.29 8.92C55.29 8.78 55.20 8.65 55.05 8.58C54.70 8.93 54.10 9.28 53.58 9.28C53.21 9.28 52.99 9.03 53.16 8.25L54.01 4.20C54.12 3.67 53.84 3.43 53.34 3.43C52.75 3.43 52.25 3.72 51.77 4.10C51.49 4.33 51.59 4.76 51.77 4.87C51.90 4.76 51.98 4.70 52.05 4.70C52.18 4.70 52.23 4.83 52.19 5.05Z"></path></g><defs data-v-fde0c5aa=""><linearGradient data-v-fde0c5aa="" gradientTransform="rotate(25)" id="4b1db716-8ca0-4fda-8a23-0dc16c9ff39d" x1="0%" y1="0%" x2="100%" y2="0%"><stop data-v-fde0c5aa="" offset="0%" stop-color="#E9007F" stop-opacity="1"></stop><stop data-v-fde0c5aa="" offset="100%" stop-color="#FEA134" stop-opacity="1"></stop></linearGradient></defs><g data-v-fde0c5aa="" id="2bdc7d63-ab8b-4a85-8685-956ee47e7bc9" stroke="none" fill="url(#4b1db716-8ca0-4fda-8a23-0dc16c9ff39d)" transform="matrix(3.2683715383309253,0,0,3.2683715383309253,97.7060553867052,62.55908308005779)"><path d="M16 32c8.837 0 16-7.163 16-16S24.837 0 16 0 0 7.163 0 16s7.163 16 16 16zM14.817 6.421h2v8.886h8.887v2H14.817V6.421zm-5.959.437h2v14.283h14.283v2H8.858V6.858z"></path></g><!----></svg>