<?xml version="1.0" standalone="no"?>
<!DOCTYPE svg PUBLIC "-//W3C//DTD SVG 20010904//EN"
 "http://www.w3.org/TR/2001/REC-SVG-20010904/DTD/svg10.dtd">
<svg version="1.0" xmlns="http://www.w3.org/2000/svg"
 width="512.000000pt" height="512.000000pt" viewBox="0 0 512.000000 512.000000"
 preserveAspectRatio="xMidYMid meet">
<metadata>
Created by potrace 1.16, written by Peter Selinger 2001-2019
</metadata>
<g transform="translate(0.000000,512.000000) scale(0.100000,-0.100000)"
fill="#000000" stroke="none">
<path d="M2230 4145 c-598 -71 -1144 -322 -1595 -734 -226 -207 -466 -516
-600 -774 l-40 -77 40 -77 c134 -258 374 -567 600 -774 455 -416 998 -664
1605 -734 160 -19 480 -19 640 0 607 70 1150 318 1605 734 226 207 466 516
600 774 l40 77 -40 77 c-134 258 -374 567 -600 774 -455 416 -998 664 -1605
734 -151 18 -501 17 -650 0z m-19 -621 c148 -43 279 -175 323 -323 20 -70 20
-192 0 -262 -32 -110 -115 -215 -219 -277 -139 -84 -331 -84 -470 0 -149 90
-235 239 -235 408 0 167 84 315 230 406 100 62 255 82 371 48z m-897 -300
c-35 -136 -44 -385 -20 -526 68 -401 318 -743 678 -928 189 -98 366 -140 588
-140 224 0 403 43 595 143 357 188 603 526 671 925 24 141 15 390 -20 526 -14
55 -25 101 -23 102 4 5 163 -107 247 -174 175 -138 346 -321 470 -502 l61 -90
-61 -89 c-110 -161 -252 -319 -400 -445 -348 -298 -721 -472 -1180 -553 -83
-14 -157 -18 -360 -18 -203 0 -277 4 -360 18 -459 81 -832 255 -1180 553 -148
126 -290 284 -400 445 l-61 89 61 90 c124 181 295 364 470 502 84 67 243 179
247 174 2 -1 -9 -47 -23 -102z"/>
</g>
</svg>
