<?xml version="1.0" standalone="no"?>
<!DOCTYPE svg PUBLIC "-//W3C//DTD SVG 20010904//EN"
 "http://www.w3.org/TR/2001/REC-SVG-20010904/DTD/svg10.dtd">
<svg version="1.0" xmlns="http://www.w3.org/2000/svg"
 width="840.000000pt" height="859.000000pt" viewBox="0 0 840.000000 859.000000"
 preserveAspectRatio="xMidYMid meet">
<metadata>
Created by potrace 1.16, written by Peter Selinger 2001-2019
</metadata>
<g transform="translate(0.000000,859.000000) scale(0.100000,-0.100000)"
fill="#000000" stroke="none">
<path d="M6316 7108 c-484 -485 -683 -678 -695 -674 -66 21 -152 54 -158 59
-3 4 -19 7 -35 7 -15 0 -28 4 -28 9 0 5 -16 12 -35 15 -19 3 -51 9 -70 12 -19
3 -35 10 -35 15 0 5 -20 9 -45 9 -25 0 -45 5 -45 10 0 6 -18 10 -40 10 -22 0
-40 5 -40 10 0 6 -19 10 -43 10 -24 0 -47 4 -53 9 -5 5 -29 12 -54 15 -25 3
-74 10 -110 16 -272 43 -542 57 -820 41 -118 -6 -244 -16 -280 -21 -36 -6 -91
-13 -122 -16 -32 -4 -58 -10 -58 -15 0 -5 -27 -9 -60 -9 -33 0 -60 -4 -60 -10
0 -5 -20 -10 -45 -10 -25 0 -45 -4 -45 -10 0 -5 -18 -10 -40 -10 -22 0 -40 -4
-40 -10 0 -5 -20 -10 -45 -10 -25 0 -45 -4 -45 -10 0 -5 -15 -10 -34 -10 -19
0 -38 -4 -41 -10 -3 -5 -19 -10 -36 -10 -16 0 -29 -4 -29 -10 0 -5 -13 -10
-30 -10 -16 0 -30 -4 -30 -10 0 -5 -8 -10 -18 -10 -9 0 -42 -9 -72 -21 -30
-11 -62 -22 -70 -24 -32 -9 -90 -32 -96 -38 -4 -4 -16 -7 -26 -7 -10 0 -18 -4
-18 -10 0 -5 -11 -10 -24 -10 -14 0 -28 -4 -31 -10 -3 -5 -15 -10 -26 -10 -10
0 -19 -4 -19 -10 0 -5 -11 -10 -25 -10 -14 0 -25 -4 -25 -10 0 -5 -11 -10 -25
-10 -14 0 -25 -4 -25 -10 0 -5 -7 -10 -15 -10 -8 0 -30 -9 -50 -20 -20 -11
-42 -20 -50 -20 -8 0 -15 -4 -15 -9 0 -5 -13 -11 -29 -14 -16 -3 -35 -12 -42
-19 -8 -7 -41 -26 -74 -43 -33 -16 -61 -33 -63 -37 -2 -5 -12 -8 -23 -8 -10 0
-19 -4 -19 -10 0 -5 -9 -10 -20 -10 -11 0 -20 -4 -20 -10 0 -5 -9 -10 -20 -10
-11 0 -20 -4 -20 -10 0 -5 -9 -10 -20 -10 -11 0 -20 -4 -20 -10 0 -5 -7 -10
-15 -10 -8 0 -15 -4 -15 -10 0 -5 -9 -10 -20 -10 -11 0 -20 -4 -20 -9 0 -5 -8
-11 -17 -14 -18 -6 -73 -37 -83 -47 -13 -13 -91 -60 -100 -60 -5 0 -10 -4 -10
-10 0 -5 -7 -10 -15 -10 -8 0 -15 -4 -15 -10 0 -5 -7 -10 -15 -10 -8 0 -15 -4
-15 -10 0 -5 -7 -10 -15 -10 -8 0 -15 -4 -15 -10 0 -5 -7 -10 -15 -10 -8 0
-15 -4 -15 -10 0 -5 -8 -10 -18 -10 -10 0 -24 -9 -32 -20 -8 -11 -19 -20 -24
-20 -11 0 -150 -97 -182 -127 -12 -13 -28 -23 -35 -23 -6 0 -24 -13 -39 -30
-15 -16 -33 -30 -39 -30 -6 0 -11 -4 -11 -10 0 -5 -5 -10 -11 -10 -6 0 -16 -6
-23 -12 -7 -7 -25 -22 -40 -33 -15 -11 -47 -37 -69 -57 -23 -21 -45 -38 -49
-38 -4 0 -23 -16 -42 -35 -20 -19 -38 -35 -41 -35 -3 0 -22 -16 -42 -35 -20
-19 -40 -35 -44 -35 -4 0 -30 -21 -58 -47 -86 -83 -142 -133 -146 -133 -7 0
-364 -361 -410 -415 -22 -25 -49 -56 -60 -68 -28 -30 -65 -95 -65 -113 0 -8
-4 -14 -10 -14 -5 0 -10 -16 -10 -35 0 -19 -4 -35 -10 -35 -6 0 -10 -37 -10
-90 0 -53 4 -90 10 -90 6 0 10 -16 10 -35 0 -19 5 -35 10 -35 6 0 10 -6 10
-14 0 -18 38 -84 65 -113 11 -12 34 -38 50 -59 34 -41 412 -424 420 -424 5 0
78 -65 139 -125 23 -22 57 -51 76 -65 19 -13 42 -32 51 -42 9 -10 19 -18 23
-18 4 0 22 -15 40 -32 18 -18 43 -40 55 -48 32 -21 80 -61 107 -87 13 -13 28
-23 34 -23 5 0 10 -4 10 -10 0 -5 7 -10 15 -10 8 0 15 -4 15 -10 0 -5 6 -10
13 -10 7 0 19 -9 27 -20 8 -11 19 -20 25 -20 6 0 20 -8 31 -19 11 -10 44 -35
74 -56 30 -21 62 -46 72 -55 10 -9 31 -23 46 -31 15 -8 34 -22 43 -31 9 -10
24 -18 33 -18 9 0 16 -4 16 -10 0 -5 7 -10 15 -10 8 0 15 -4 15 -10 0 -5 7
-10 15 -10 8 0 15 -4 15 -10 0 -5 7 -10 15 -10 8 0 15 -4 15 -10 0 -5 5 -10
10 -10 10 0 87 -49 133 -84 17 -13 -24 -56 -532 -565 -545 -544 -551 -551
-551 -591 0 -51 -6 -44 223 -267 4 -5 56 -57 115 -118 60 -60 121 -122 137
-136 17 -15 53 -51 80 -80 28 -30 60 -60 72 -67 27 -14 93 -16 93 -2 0 6 5 10
10 10 11 0 80 65 80 75 0 7 148 155 155 155 3 0 26 20 50 45 25 24 45 47 45
50 0 8 148 155 156 155 3 0 29 25 58 57 70 77 184 193 190 193 2 0 28 25 58
56 29 31 88 90 131 132 43 43 99 99 125 125 26 27 82 83 125 125 43 42 99 99
125 125 26 27 83 84 127 127 90 89 90 90 251 251 64 64 125 125 135 135 11 11
57 58 104 107 46 48 87 87 92 87 4 1 26 21 48 46 22 26 81 86 130 135 50 49
104 102 120 119 56 56 217 218 239 239 37 37 250 250 271 271 11 11 67 68 125
125 128 128 117 117 245 245 57 58 114 114 125 125 11 11 67 67 125 125 57 58
109 110 115 115 6 6 62 62 125 125 63 63 124 125 136 136 12 12 73 73 136 137
64 63 120 120 127 126 6 6 501 502 1100 1102 1063 1064 1089 1091 1089 1128 0
46 -34 87 -246 289 -4 4 -89 89 -188 190 -100 100 -190 187 -200 192 -10 6
-33 10 -51 9 -30 0 -92 -59 -712 -681z m-3549 -1512 c-9 -9 -19 -25 -22 -36
-3 -11 -11 -20 -16 -20 -5 0 -9 -9 -9 -19 0 -11 -3 -21 -7 -23 -11 -4 -63
-115 -63 -133 0 -8 -4 -15 -10 -15 -5 0 -10 -9 -10 -20 0 -11 -4 -20 -10 -20
-5 0 -10 -13 -10 -29 0 -17 -4 -33 -10 -36 -5 -3 -10 -19 -10 -36 0 -16 -4
-29 -10 -29 -5 0 -10 -18 -10 -40 0 -22 -4 -40 -10 -40 -5 0 -10 -22 -10 -50
0 -27 -4 -50 -10 -50 -6 0 -10 -32 -10 -75 0 -46 -4 -75 -11 -75 -7 0 -8 -45
-5 -137 7 -197 16 -293 27 -293 5 0 9 -20 9 -45 0 -25 5 -45 10 -45 6 0 10
-18 10 -40 0 -22 5 -40 10 -40 6 0 10 -16 10 -35 0 -19 5 -35 10 -35 6 0 10
-13 10 -30 0 -16 5 -30 10 -30 6 0 10 -7 10 -16 0 -18 91 -207 103 -212 4 -2
7 -11 7 -21 0 -9 9 -23 20 -31 11 -8 20 -22 20 -32 0 -10 5 -18 10 -18 6 0 10
-7 10 -15 0 -8 14 -29 30 -47 30 -31 34 -40 31 -66 -1 -8 -114 -126 -252 -262
l-249 -249 -50 29 c-28 17 -55 30 -60 30 -6 0 -10 4 -10 8 0 5 -16 14 -35 22
-19 8 -35 17 -35 22 0 4 -7 8 -15 8 -8 0 -15 5 -15 10 0 6 -7 10 -15 10 -8 0
-15 5 -15 10 0 6 -8 10 -18 10 -10 0 -24 9 -32 20 -8 11 -20 20 -28 20 -7 0
-18 5 -25 10 -7 6 -37 27 -67 47 -30 20 -61 43 -68 50 -7 7 -17 13 -22 13 -5
0 -20 11 -34 25 -14 14 -31 25 -38 25 -8 0 -20 9 -28 20 -8 11 -20 20 -27 20
-7 0 -13 5 -13 10 0 6 -5 10 -11 10 -6 0 -16 6 -23 13 -7 6 -25 21 -40 32 -16
11 -42 32 -58 48 -17 15 -34 27 -39 27 -4 0 -24 16 -43 35 -20 19 -39 35 -43
35 -5 0 -15 9 -23 20 -8 11 -18 20 -23 20 -5 0 -14 6 -22 13 -7 6 -38 35 -70
62 -31 28 -76 69 -100 93 -25 23 -47 42 -50 42 -10 0 -265 259 -265 269 0 11
255 271 265 271 3 0 25 19 50 43 24 23 69 65 100 92 32 28 63 56 70 63 8 6 17
12 22 12 5 0 15 9 23 20 8 11 18 20 23 20 4 0 23 16 43 35 19 19 39 35 43 35
5 0 22 12 39 28 16 15 42 36 58 47 15 11 33 26 40 33 7 6 17 12 23 12 6 0 11
5 11 10 0 6 6 10 13 10 7 0 19 9 27 20 8 11 21 20 30 20 9 0 22 9 30 20 8 11
19 20 25 20 5 0 23 11 39 25 16 13 52 39 80 57 28 18 57 38 64 45 6 6 21 15
32 18 11 3 20 11 20 16 0 5 8 9 18 9 10 0 24 9 32 20 8 11 22 20 32 20 10 0
18 4 18 8 0 5 16 14 35 22 19 8 35 17 35 22 0 4 9 8 19 8 11 0 21 4 23 8 4 11
162 102 176 102 7 0 12 5 12 10 0 6 9 10 20 10 11 0 20 5 20 10 0 6 9 10 20
10 11 0 20 5 20 10 0 6 9 10 20 10 11 0 20 5 20 10 0 6 9 10 20 10 11 0 20 5
20 10 0 6 9 10 19 10 11 0 23 5 26 10 3 6 15 10 26 10 10 0 19 4 19 9 0 12 42
19 54 10 5 -4 2 -15 -7 -23z"/>
<path d="M6903 5665 c-37 -36 -72 -69 -77 -74 -4 -5 -46 -47 -93 -95 -46 -47
-89 -86 -94 -86 -5 0 -9 -5 -9 -10 0 -14 -55 -70 -69 -70 -6 0 -11 -4 -11 -10
0 -5 -20 -30 -45 -54 -25 -25 -45 -52 -45 -60 0 -8 20 -27 45 -43 25 -15 45
-31 45 -35 0 -5 6 -8 14 -8 7 0 27 -13 44 -30 18 -16 38 -30 45 -30 7 0 19 -9
27 -20 8 -11 20 -20 27 -20 7 0 13 -4 13 -10 0 -5 7 -10 15 -10 8 0 15 -4 15
-10 0 -5 5 -10 10 -10 6 0 21 -9 33 -20 65 -59 90 -80 98 -80 4 0 24 -16 43
-35 20 -19 39 -35 43 -35 5 0 15 -9 23 -20 8 -11 20 -20 27 -20 7 0 13 -4 13
-10 0 -5 5 -10 10 -10 6 0 36 -25 68 -55 105 -100 121 -115 127 -115 12 0 285
-279 285 -292 0 -12 -273 -288 -285 -288 -5 0 -95 -83 -161 -147 -24 -24 -48
-43 -54 -43 -5 0 -10 -4 -10 -10 0 -5 -6 -10 -13 -10 -7 0 -19 -9 -27 -20 -8
-11 -18 -20 -22 -20 -4 0 -25 -16 -45 -35 -20 -19 -40 -35 -44 -35 -3 0 -15
-8 -27 -17 -11 -10 -33 -27 -48 -38 -15 -11 -33 -26 -40 -32 -7 -7 -17 -13
-23 -13 -6 0 -11 -4 -11 -10 0 -5 -6 -10 -13 -10 -7 0 -19 -9 -27 -20 -8 -11
-20 -20 -26 -20 -6 0 -25 -13 -42 -30 -18 -16 -34 -30 -37 -30 -9 0 -137 -87
-162 -110 -12 -11 -29 -20 -38 -20 -8 0 -15 -4 -15 -10 0 -5 -7 -10 -15 -10
-8 0 -15 -4 -15 -10 0 -5 -7 -10 -15 -10 -8 0 -15 -4 -15 -10 0 -5 -9 -10 -20
-10 -11 0 -20 -4 -20 -10 0 -5 -6 -10 -14 -10 -8 0 -16 -3 -18 -7 -1 -5 -23
-19 -48 -32 -25 -14 -47 -28 -50 -31 -9 -12 -222 -120 -236 -120 -8 0 -14 -4
-14 -10 0 -5 -9 -10 -20 -10 -11 0 -20 -4 -20 -10 0 -5 -9 -10 -20 -10 -11 0
-20 -4 -20 -10 0 -5 -9 -10 -20 -10 -11 0 -20 -4 -20 -10 0 -5 -9 -10 -20 -10
-11 0 -20 -4 -20 -10 0 -5 -11 -10 -25 -10 -14 0 -25 -3 -25 -8 0 -4 -15 -12
-32 -18 -47 -17 -160 -63 -180 -74 -10 -6 -27 -10 -38 -10 -11 0 -20 -4 -20
-10 0 -5 -13 -10 -30 -10 -16 0 -30 -4 -30 -10 0 -5 -9 -10 -20 -10 -11 0 -20
-4 -20 -10 0 -5 -18 -10 -40 -10 -22 0 -40 -4 -40 -10 0 -5 -16 -10 -35 -10
-19 0 -35 -4 -35 -10 0 -5 -18 -10 -40 -10 -22 0 -40 -4 -40 -10 0 -5 -13 -10
-28 -10 -15 0 -32 -4 -37 -9 -6 -5 -28 -11 -50 -14 -22 -4 -62 -11 -90 -16
-291 -60 -597 -80 -881 -58 l-100 8 -41 -41 c-23 -22 -45 -40 -50 -40 -5 0
-15 -10 -23 -21 -25 -36 -239 -249 -250 -249 -5 0 -10 -4 -10 -10 0 -9 -143
-155 -187 -190 -22 -18 -43 -54 -43 -74 0 -8 14 -16 33 -19 17 -4 48 -9 67
-12 19 -4 44 -10 55 -15 11 -5 38 -11 60 -14 137 -18 190 -26 204 -32 31 -12
219 -25 451 -31 236 -5 390 3 575 32 50 8 108 17 130 20 22 3 63 10 90 15 28
5 71 12 98 16 26 3 47 11 47 15 0 5 18 9 40 9 22 0 40 5 40 10 0 6 18 10 40
10 22 0 40 5 40 10 0 6 20 10 45 10 25 0 45 5 45 10 0 6 14 10 30 10 17 0 30
5 30 10 0 6 11 10 25 10 14 0 33 4 43 10 9 5 55 22 102 39 145 50 185 66 188
74 2 4 17 7 33 7 16 0 29 5 29 10 0 6 9 10 20 10 11 0 20 5 20 10 0 6 11 10
25 10 14 0 25 5 25 10 0 6 11 10 25 10 14 0 25 5 25 10 0 6 9 10 20 10 11 0
20 5 20 10 0 6 11 10 25 10 14 0 25 5 25 10 0 6 9 10 20 10 11 0 20 5 20 10 0
6 9 10 20 10 11 0 20 5 20 10 0 6 6 10 14 10 16 0 190 91 194 102 2 4 12 8 23
8 10 0 19 5 19 10 0 6 9 10 20 10 11 0 20 5 20 10 0 6 9 10 20 10 11 0 20 5
20 10 0 6 7 10 15 10 8 0 15 5 15 10 0 6 9 10 20 10 11 0 20 5 20 10 0 6 6 10
13 10 7 0 23 9 35 20 12 11 26 20 32 20 6 0 16 5 23 10 20 17 110 74 140 89
15 8 27 18 27 23 0 4 6 8 13 8 7 0 23 9 35 20 12 11 27 20 34 20 8 0 20 9 28
20 8 11 18 20 23 20 5 0 37 19 70 43 78 53 74 50 121 92 22 19 45 35 51 35 6
0 17 9 25 20 8 11 21 20 30 20 9 0 22 9 30 20 8 11 18 20 23 20 4 0 18 9 30
20 47 43 86 76 107 90 13 8 33 25 46 38 13 12 26 22 30 22 3 0 19 14 34 30 15
17 31 30 34 30 7 0 18 9 111 96 39 36 86 78 105 92 41 32 401 393 445 447 17
20 42 50 57 66 15 17 30 39 33 50 4 10 11 19 16 19 5 0 9 9 9 19 0 11 5 23 10
26 6 3 10 24 10 46 0 21 5 39 10 39 6 0 10 33 10 80 0 47 -4 80 -10 80 -5 0
-10 18 -10 40 0 22 -4 40 -10 40 -5 0 -10 11 -10 25 0 14 -4 25 -9 25 -5 0
-12 9 -16 19 -3 11 -18 33 -33 50 -15 16 -49 55 -77 86 -70 80 -413 425 -422
425 -5 0 -47 38 -96 85 -48 47 -92 85 -98 85 -6 0 -28 18 -49 40 -21 22 -41
40 -45 40 -3 0 -17 11 -31 25 -14 14 -29 25 -34 25 -4 0 -26 17 -48 38 -49 45
-78 68 -114 90 -16 9 -28 20 -28 24 0 4 -6 8 -13 8 -7 0 -19 9 -27 20 -8 11
-21 20 -28 20 -8 0 -26 13 -40 28 -15 16 -38 35 -51 42 -14 7 -30 17 -35 21
-6 5 -25 20 -43 34 l-31 25 -69 -65z"/>
<path d="M5900 4653 c-17 -7 -40 -29 -40 -38 0 -7 -67 -75 -75 -75 -7 0 -175
-168 -175 -175 0 -7 -68 -75 -75 -75 -7 0 -175 -168 -175 -175 0 -7 -68 -75
-75 -75 -7 0 -175 -168 -175 -175 0 -7 -68 -75 -75 -75 -8 0 -175 -169 -175
-177 -1 -5 -21 -26 -46 -48 -59 -51 -198 -190 -249 -249 -22 -25 -44 -45 -48
-46 -11 0 -237 -234 -237 -245 0 -3 41 -5 90 -5 53 0 90 4 90 10 0 6 25 10 55
10 30 0 55 5 55 10 0 6 18 10 39 10 22 0 43 5 46 10 3 6 19 10 35 10 16 0 32
5 35 10 3 6 17 10 30 10 13 0 27 5 30 10 3 6 17 10 31 10 13 0 24 5 24 10 0 6
8 10 18 10 9 0 46 16 82 35 35 19 70 35 77 35 7 0 13 5 13 10 0 6 8 10 18 10
10 0 24 9 32 20 8 11 22 20 32 20 10 0 18 5 18 10 0 6 7 10 15 10 8 0 15 5 15
10 0 6 7 10 15 10 8 0 15 5 15 10 0 6 7 10 15 10 8 0 15 3 15 8 0 4 17 18 37
32 57 38 172 147 248 235 22 26 46 52 53 60 6 7 12 18 12 24 0 6 5 11 10 11 6
0 10 6 10 13 0 7 9 19 20 27 11 8 20 22 20 32 0 10 4 18 9 18 5 0 14 14 21 30
7 17 16 30 21 30 5 0 9 4 9 9 0 5 16 37 35 71 19 34 35 68 35 76 0 8 4 14 8
14 5 0 15 23 22 50 7 28 17 50 22 50 4 0 8 14 8 30 0 17 5 30 10 30 6 0 10 16
10 35 0 19 5 35 10 35 6 0 10 18 10 40 0 22 5 40 10 40 6 0 10 19 10 43 0 24
4 47 9 53 5 5 12 47 15 94 3 47 8 97 12 113 3 15 5 27 3 26 -2 0 -11 -3 -19
-6z"/>
</g>
</svg>
