<svg id="Capa_1" data-name="Capa 1" xmlns="http://www.w3.org/2000/svg" xmlns:xlink="http://www.w3.org/1999/xlink" viewBox="0 0 699.68 231.19"><defs><style>.cls-1{fill:url(#Degradado_sin_nombre_40);}.cls-2{fill:#fbbf24;}</style><radialGradient id="Degradado_sin_nombre_40" cx="138.94" cy="116.56" r="83.74" gradientTransform="translate(4.03 15.1) scale(1.05 1.11)" gradientUnits="userSpaceOnUse"><stop offset="0" stop-color="#fb72a2" stop-opacity="0.8"/><stop offset="0.5" stop-color="#fb24a2"/><stop offset="1" stop-color="#fb72a2" stop-opacity="0.8"/></radialGradient></defs><title>logoHolimori</title><path class="cls-1" d="M114.74,49.33v1a78.79,78.79,0,0,0-5.51,30q0,27.92,25.72,51.31-7.35,4.83-13.78,4.83-14.08,0-27.55-29a71.37,71.37,0,0,1-2.76-15.49q0-30.18,23-42.59Zm37.65,100.5.92,1.94q-10.09,35.17-10.1,46.47v4.83q0,17,11.94,20.34,11.94,0,15.61,18.38v2.9q-2.61,15.51-6.42,15.5c0-.65-.31-1-.92-1q3.66-12.74,3.67-18.39,0-11.13-19.29-16.46-7.34-7.89-7.35-13.55l-1.83,1h-1.84q0-25.33-21.12-34.85a24.06,24.06,0,0,1-4.6-13.54c.62-6.47,1.84-9.69,3.68-9.69l1.84,1a101.05,101.05,0,0,1-1.84,10.65q0,9,17.45,18.4,6.44,9.51,6.43,16.45h.92q0-21,11.93-50.34ZM148.72,29h1.84a28.33,28.33,0,0,1,20.51,8.39q8.56,8.38,13.47,25.49a35.65,35.65,0,0,1,1.53,8q.3,4.13.3,8.47v1q0,30.49-30.3,48.4a9.2,9.2,0,0,1-4.6,1h-2.75q-14.85,0-30.31-31.94a32.88,32.88,0,0,1-2.52-7.66,57.46,57.46,0,0,1-1.15-10.74q-.3-17.58,6.66-29.84T142.29,30ZM123.93,138.38q6.42,4.2,6.42,10.48l-1.83,1H116.58c-1.23,0-1.84-.64-1.84-1.93q0-4.85,6.43-9.52Zm28.46-6.77q7.35,5.31,7.35,11.61v1a1.59,1.59,0,0,1-1.83,1.77h-14.7c-1.22,0-1.84-.59-1.84-1.77q2.76-12.58,10.1-12.58Zm27.55,4.83q6.44,4.2,6.43,9.52v2.9H179q-3.67,10.65-3.68,16.46,0,2.91,8.11,18.4v6.77q0,11-16.37,26.14a6.9,6.9,0,0,1-2.75,1l-.92-1.94q17.45-17.09,17.44-28.06-9.18-19.51-9.18-23.24v-1.93a23.58,23.58,0,0,1,4.59-13.56q-5.51,0-5.51-1.93Q172.59,136.45,179.94,136.44Zm7.35-88.08h1.84q21,13.88,21,40.65v2.91q0,27.75-28.32,42.59h-5.51q-2.15,0-9.18-3.87v-1q24.79-25.32,24.8-44.53V71.59q0-6.28-4.6-22.26Z" transform="translate(-90.86 -29)"/><path class="cls-2" d="M743,120.24v.55c0,.26-.26.53-.77.81h-.76c-.22,0-.48-.27-.77-.81V120c.17-.56.68-.83,1.53-.83Zm1,5.81q11.5,0,20.36,11h-.26q-9.32-8.2-18.57-8.21c-.75.09-1.44.15-2.07.19s-1.21.06-1.76.06a.22.22,0,0,0-.25-.25c.32-1.86,1.09-2.79,2.3-2.79Zm.76-17.12c.34.09.67.54,1,1.35,0,.56-.51,1.11-1.51,1.67-.78-.35-1.2-.73-1.27-1.11V110q0-.42,1-1.08Zm2,4.67a2.48,2.48,0,0,1,1.53,1.39v1.1c-.51.93-1.11,1.38-1.79,1.38a2.17,2.17,0,0,1-1.5-2.21C745.41,114.16,746,113.6,746.75,113.6Zm1-11.31q.4,0,1,1.11V104q0,.45-1,1.11H747c-.25,0-.59-.37-1-1.11v-.55c0-.28.33-.65,1-1.11ZM746,121.6h.5c.34.09.51.27.51.55s-.17.55-.51.55-.5-.18-.5-.55Zm3-15.16a22.54,22.54,0,0,1,12.74,10.48c2,4.46,3.06,7.13,3.06,8h-.51q-2.73-9.61-9.16-13.79a31.85,31.85,0,0,0-7.15-3.57v-.28Zm.26,5.78a15.25,15.25,0,0,1,5.51,2.64,30,30,0,0,1,5.69,5.66,18.88,18.88,0,0,1,2.6,4.31,25.13,25.13,0,0,1,1.49,4.79l-2.81-5.54q-3.53-6.93-13.5-10.75v-.28C748.28,112.57,748.62,112.3,749.3,112.22Zm1.53,6.92c1,0,1.53.63,1.53,1.9,0,1.11-.59,1.66-1.78,1.66-1,0-1.54-.63-1.54-1.91C749,119.69,749.64,119.14,750.83,119.14Zm2.55-19.34h.26q6.47,4,9.16,13-6.1-8.23-11.71-10.2l-.26-.55Zm.77,21a20.38,20.38,0,0,1,9.92,10.76v.25q-6.39-6.69-11.45-7.44c-.51,0-.76-.18-.76-.55C752.79,121.8,753.56,120.79,754.15,120.79Zm9.42-19.05c.22,0,.47.28.76.83v.83c-.36.74-.78,1.11-1.27,1.11a1.69,1.69,0,0,1-1.28-1.66c.26-.74.51-1.11.76-1.11Zm1.78,4.12c.49,0,.89.94,1.19,2.92a79.65,79.65,0,0,1,.57,8.94c-.09,1.5-.15,2.65-.19,3.48s-.06,1.32-.06,1.5h-.52v-.3q0-7.19-4.05-15.71v-.55Zm1.25,27.07h.51v.53h-.51Zm.26-1.1h.5v.52h-.5Zm14.77-18.23c.22,0,.48.28.77.83l-6.13,3.6a25.59,25.59,0,0,0-8.65,12.69v.56h-.51a28.09,28.09,0,0,1,3-8,24.25,24.25,0,0,1,5.37-6.36,17.37,17.37,0,0,1,3-2A22.85,22.85,0,0,1,781.63,113.6Zm-12.73-9.37c.78.35,1.21.72,1.28,1.11v1.1c0,.26-.26.54-.77.83h-1c-.26,0-.6-.37-1-1.11v-.55A2.67,2.67,0,0,1,768.9,104.23Zm19.34,21.82c1.21,0,2,.92,2.3,2.76l-.51.28q-.64,0-1.59-.06c-.62,0-1.37-.1-2.24-.19q-9,0-18.32,8.21h-.26q9.06-11,19.86-11ZM768.9,110.84c.68.28,1,.55,1,.83v.55c0,.28-.26.55-.77.83h-.51c-.23,0-.49-.28-.76-.83V112Q767.88,111.53,768.9,110.84Zm1.53,5.81c.22,0,.48.27.77.82,0,.38-.18.56-.52.56h-.5c-.34,0-.52-.18-.52-.56v-.27c.06-.37.22-.55.52-.55Zm-.51,13h.26v.53h-.26Zm.51-.83.25,0v.53h-.25ZM790.28,118v.56q-11.56,0-19.34,9.95v-.28q7.06-11.05,18.83-11.06ZM778.57,97.62a15.84,15.84,0,0,0,3.06,1.63q-8.11,8.63-9.41,13.52h-.52Q774.82,101.66,778.57,97.62Zm.51,9.65q.4,0,1,1.11v.28c0,.25-.26.53-.76.82h-.77c-.34,0-.51-.18-.51-.55v-.83c0-.28.26-.55.76-.83Zm3.06-4.7c.68.28,1,.55,1,.83v1.11c0,.29-.34.66-1,1.1-1.19,0-1.78-.55-1.78-1.66A1.67,1.67,0,0,1,782.14,102.57Zm1,19.3h.51c.22,0,.48.28.77.83v.56c0,.27-.26.55-.77.82h-.76c-.38,0-.63-.46-.77-1.38Zm3.8-7.71c.68.27,1,.55,1,.83v.55c0,.26-.25.54-.76.83H787q-.37,0-1-1.11C785.94,115,786.28,114.6,787,114.16Zm1-3.6c.26,0,.52.28.77.83v.28c0,.28-.25.55-.77.83h-.5A.48.48,0,0,1,787,112v-.83c.06-.37.22-.56.52-.56Zm1.54,11.87c.25,0,.51.36.76,1.1-.25.74-.51,1.11-.76,1.11H789c-.23,0-.49-.28-.76-.84V123c0-.38.22-.56.51-.56Z" transform="translate(-90.86 -29)"/><path class="cls-2" d="M312,80.17q-.58,2.16-3.21,13.41t-6.43,27.57q-3.81,16.33-6.72,28,5.55,0,15.78.3l10.38.31q2.91-12,6.94-27.26t7.52-28.27q3.51-13,4-14.87a6.38,6.38,0,0,1,3.95-.53,6.62,6.62,0,0,1,3.29,1.69c.92.87,1.24,1.67,1,2.39l-12.87,54.68q-2,8.18-3.06,12.17,12.27-.3,15.34-2.62a2.4,2.4,0,0,0,.88-1.38,7.36,7.36,0,0,0-.08-2.24,17,17,0,0,1-.21-2.23,2.68,2.68,0,0,1,1.75-2.62,3.69,3.69,0,0,1,3.43.16,3.5,3.5,0,0,1,1.68,3.38,13,13,0,0,1-2.48,6.78,12.28,12.28,0,0,1-5.7,3.93,35,35,0,0,1-7.23,1.77q-3.58.47-8.85.62-3.21,12.78-5.33,23T321.81,201a103.6,103.6,0,0,0-1,22.11q.74,9.7,4.1,15.71c1.07,1.64.77,3.26-.88,4.85a8.36,8.36,0,0,1-5.7,2.47,5.63,5.63,0,0,1-4.82-1.93q-9.94-16.64,7-88.88c-.88,0-4.6-.16-11.18-.46s-11.62-.41-15.13-.31q-1,4-3.07,12.17a83.63,83.63,0,0,1-19.21,35.66q-13.68,14.86-32.38,16.09-14,.78-19.65-9.24t-.37-23.1q5.55-13.87,22.14-24.27t42.17-12.4q1-3.69,6.72-25.41t8-30.66c-.2.21-.61.7-1.24,1.47a11.16,11.16,0,0,1-1.54,1.61q-22.95,23.58-37.71,21.26a10.56,10.56,0,0,1-7.59-4.39q-2.49-3.62-1.61-9.16a8,8,0,0,1,1.61-3.86q2.47-2.76,5.84-.77c2.05,1.14,2.58,2.62,1.61,4.47l-.44.93c-.78,1.54-1.27,2.51-1.46,2.92a11.53,11.53,0,0,0-.66,2.31,2.59,2.59,0,0,0,.51,2.54,5.91,5.91,0,0,0,2.78,1.31q8.47,2.94,33.47-21.56,8.63-8.62,10.52-14.94a49.39,49.39,0,0,1,5.55,1.38A31.52,31.52,0,0,1,312,80.17Zm-29.66,75Q259,157.5,244.13,167.05t-19.95,21.42A25.89,25.89,0,0,0,222,199.63a14.09,14.09,0,0,0,3.07,8.4,13,13,0,0,0,11.4,4.78q13.59-.93,26.16-15.64a84,84,0,0,0,17.53-33.5Q280.6,162,282.35,155.19Z" transform="translate(-90.86 -29)"/><path class="cls-2" d="M367,143.18a14.15,14.15,0,0,1,9.28,3.39,20.47,20.47,0,0,1,6.14,9.16,24.09,24.09,0,0,1,.73,12.71q9.06-3.54,17.68-13.71h4.53q-10.81,13.86-23.23,17.72a36.43,36.43,0,0,1-8.33,13.86q-6.15,6.16-12.13,5.24-6.15-.62-9.14-6.86t-1.24-14.86a34.94,34.94,0,0,1,3.36-9.4,13,13,0,0,1,3.36-13.4A12.19,12.19,0,0,1,367,143.18Zm-9.43,12.94a11.41,11.41,0,0,1,2.49-3.24,5.35,5.35,0,0,1,4-1.08,4,4,0,0,1,3.14,2.24,3.23,3.23,0,0,1-.44,3.77,50.67,50.67,0,0,0-5.26,7.4q6.72,6.78,17.83,4.31,3.21-13.25-5.12-20a11.1,11.1,0,0,0-7.16-2.77,8.86,8.86,0,0,0-6.5,2.93A9.71,9.71,0,0,0,357.61,156.12Zm2.49,12.63a19.77,19.77,0,0,0-2.05,7.78,15.4,15.4,0,0,0,1.39,8.47q1.83,3.63,6.06,2.23a16.53,16.53,0,0,0,7.68-5.62,29.82,29.82,0,0,0,4.89-8.09Q367.41,175.07,360.1,168.75Z" transform="translate(-90.86 -29)"/><path class="cls-2" d="M439.75,85.72a12.84,12.84,0,0,1,9.43,5,16.84,16.84,0,0,1,3.72,11.47,30.07,30.07,0,0,1-5,15.33,55.88,55.88,0,0,1-12.13,13.79,133.3,133.3,0,0,1-14.39,10.39,105,105,0,0,1-13.52,7.17,169.71,169.71,0,0,0-5.12,19.56,132,132,0,0,0-1.75,20c0,2.26.58,3.44,1.75,3.54q2.93.47,7.6-6.32,13.89-20.17,21.05-30.8l3.8-.16-25.43,40.21a11.17,11.17,0,0,1-6,4.93,7.33,7.33,0,0,1-6.51-.93q-3-2-4-6.78Q392,186,393,176q.88-16,9.57-41.82t18.78-38.44Q429.52,85.26,439.75,85.72Zm2.48,5.55q-7,0-15.34,14.78a274,274,0,0,0-17.39,37.74,99.83,99.83,0,0,0,12.05-6.85,128.46,128.46,0,0,0,12.65-9.55,52,52,0,0,0,10.59-12.17,26,26,0,0,0,4.31-13.17,13.72,13.72,0,0,0-1.75-7.55A5.74,5.74,0,0,0,442.23,91.27Z" transform="translate(-90.86 -29)"/><path class="cls-2" d="M440.33,150.42l-2.48,6.78q-2.49,6.62-5.26,16.17a109.18,109.18,0,0,0-3.51,15.1,5.17,5.17,0,0,0-.15,1.23q-.29,5.85,4.24-1.23,12.42-19.11,21.05-33.58l3.8-.16-24.26,41a9,9,0,0,1-4.83,3.85,4.94,4.94,0,0,1-5.26-1.39c-1.55-1.54-2.34-4.11-2.34-7.7q0-7.86,3.95-21.34a154.28,154.28,0,0,1,7-20.1,1.94,1.94,0,0,0,.29-.46c1.07-1.64,2.87-2.16,5.41-1.54C440.24,147.65,441,148.78,440.33,150.42Zm-3.58-16.56a5.39,5.39,0,0,1,3.88-1.46,5.62,5.62,0,0,1,3.94,1.46,4.87,4.87,0,0,1,0,7.24,5.62,5.62,0,0,1-3.94,1.46,5.39,5.39,0,0,1-3.88-1.46,5,5,0,0,1,0-7.24Z" transform="translate(-90.86 -29)"/><path class="cls-2" d="M502,154.89c1.17,0,1.9.72,2.19,2.15a8.69,8.69,0,0,1-.22,4.32c-.44,1.43-1.05,2.15-1.83,2.15s-5.55.05-14,.16-17.73.15-27.76.15c-1,0-1.66-.74-2.05-2.23a8.38,8.38,0,0,1,0-4.39c.39-1.44,1-2.16,1.9-2.16q6.14,0,18.63-.08T502,154.89Z" transform="translate(-90.86 -29)"/><path class="cls-2" d="M577,79.25q-9.35,31.13-16.8,61.93c-.39,1.33-.95,3.62-1.68,6.85s-1.35,5.78-1.83,7.63q15.63-35,31.13-56.38,3.36-4.62,5.7-7.4a81.67,81.67,0,0,1,6.06-6.31,27.42,27.42,0,0,1,7.75-5.32,22.9,22.9,0,0,1,8.55-1.92q8-.15,11.69,5.23a14.45,14.45,0,0,1,2.34,11.56q-1.9,8.63-7.38,25.95t-7.09,23.34q1.91-4,4.53-8.63c1.76-3.08,3.26-5.59,4.53-7.54s2.95-4.57,5-7.86,3.49-5.49,4.17-6.62q7-11.1,15.13-15.49t13.66-.53q5.55,3.84,5.55,14.94a98.47,98.47,0,0,1-2.7,16q-2,7.7-6.14,19.41t-5.33,15.4a410,410,0,0,0-14.18,56.69c-.49,3-1.75,4.7-3.8,5.16a6.33,6.33,0,0,1-5.63-1.39c-1.7-1.38-2.41-2.9-2.12-4.54a260.85,260.85,0,0,1,6.44-30.12q4.23-15.48,11.69-37.66t9.64-29.27q2.64-8.31,2.12-12.86t-2.7-6.08c-1.46-1-3.61-.54-6.43,1.46s-5.8,5.31-8.92,9.93q-21.48,31.89-32.88,64.09c-1.27,3.38-3.17,4.72-5.7,4s-3.65-2.56-3.36-5.54a215.36,215.36,0,0,1,5-26.81q3.21-12.63,8.84-29.73T620,95c1-3.08.83-5.49-.44-7.24s-3.29-2.36-6.06-1.85-5.68,2.11-8.7,4.78q-8.32,7.39-19.29,24.8A252.88,252.88,0,0,0,568.8,147q-8.32,18.48-16,38.36t-10,25a7.1,7.1,0,0,1-2.26.54,9.43,9.43,0,0,1-4.31-.23,1.88,1.88,0,0,1-1.46-2.62q.43-1.54,6.28-27.88t9.5-41.44q1.89-7.86,5.63-23.57T561.49,93q-24,26.81-40.34,24.19a10.88,10.88,0,0,1-7.67-4.4q-2.55-3.61-1.68-9.16a8,8,0,0,1,1.61-3.85q2.48-2.77,5.84-.77c2,1.13,2.58,2.62,1.61,4.47l-.44.92c-.78,1.54-1.26,2.52-1.46,2.93a13.09,13.09,0,0,0-.66,2.31,2.56,2.56,0,0,0,.52,2.54,6.06,6.06,0,0,0,2.77,1.31q8.63,2.92,33.62-21.57,8.63-8.62,10.37-14.79c.49-1.54,1.73-2.43,3.73-2.69a8.6,8.6,0,0,1,5.55,1.08Q577.43,76.94,577,79.25Z" transform="translate(-90.86 -29)"/><path class="cls-2" d="M684.33,143.18a14.15,14.15,0,0,1,9.28,3.39,20.47,20.47,0,0,1,6.14,9.16,24.09,24.09,0,0,1,.73,12.71q9.06-3.54,17.68-13.71h4.53q-10.82,13.86-23.23,17.72a36.43,36.43,0,0,1-8.33,13.86Q685,192.47,679,191.55q-6.15-.62-9.14-6.86t-1.24-14.86a34.94,34.94,0,0,1,3.36-9.4,13,13,0,0,1,3.36-13.4A12.19,12.19,0,0,1,684.33,143.18Zm-9.43,12.94a11.41,11.41,0,0,1,2.49-3.24,5.35,5.35,0,0,1,4-1.08,4,4,0,0,1,3.14,2.24,3.23,3.23,0,0,1-.44,3.77,50.67,50.67,0,0,0-5.26,7.4q6.72,6.78,17.83,4.31,3.21-13.25-5.12-20a11.1,11.1,0,0,0-7.16-2.77,8.86,8.86,0,0,0-6.5,2.93A9.71,9.71,0,0,0,674.9,156.12Zm2.49,12.63a19.77,19.77,0,0,0-2,7.78,15.4,15.4,0,0,0,1.39,8.47q1.83,3.63,6.07,2.23a16.56,16.56,0,0,0,7.67-5.62,29.82,29.82,0,0,0,4.89-8.09Q684.7,175.07,677.39,168.75Z" transform="translate(-90.86 -29)"/><path class="cls-2" d="M726.64,132.86a9.65,9.65,0,0,1,1.32,6.31,34.08,34.08,0,0,1-6.43,17.1,24.3,24.3,0,0,1,7.89,7.4q3.95,6.78.58,18c-.29,1.33-.68,3.6-1.17,6.78q-.87,7.69,4.09,0,12.44-19.11,20.9-33.58l3.95-.16-24.26,41a9,9,0,0,1-4.82,3.85,4.93,4.93,0,0,1-5.26-1.39q-2.34-2.31-2.34-7.7,0-6.47,2.77-18.18a5.7,5.7,0,0,0,.37-3.93c-.34-1.38-.66-2.48-1-3.31a7.69,7.69,0,0,0-1.9-2.69c-1-1-1.78-1.75-2.41-2.31s-1.49-1.26-2.56-2.08-1.9-1.49-2.48-2a14.88,14.88,0,0,1-4.68-5.85,15.43,15.43,0,0,1-.37-8.78,18.75,18.75,0,0,1,4-7.86,10.6,10.6,0,0,1,6.8-4.16C722.18,129,724.5,130.19,726.64,132.86Zm-6,.61q-3.51.17-6.36,5.55t-1.09,9.4a14.08,14.08,0,0,0,5.26,6,31.34,31.34,0,0,0,4.82-9.7,7.13,7.13,0,0,1,.36-1.47c.25-.76.42-1.33.52-1.69s.22-.9.36-1.62a6.23,6.23,0,0,0,.15-1.85,11.2,11.2,0,0,0-.29-1.61,4.65,4.65,0,0,0-.81-1.62A3.68,3.68,0,0,0,720.65,133.47Z" transform="translate(-90.86 -29)"/><path class="cls-2" d="M763.32,150.42l-2.48,6.78q-2.49,6.62-5.26,16.17a109.18,109.18,0,0,0-3.51,15.1,5.17,5.17,0,0,0-.15,1.23q-.28,5.85,4.24-1.23,12.42-19.11,21.05-33.58l3.8-.16-24.26,41a9,9,0,0,1-4.83,3.85,4.94,4.94,0,0,1-5.26-1.39q-2.32-2.31-2.33-7.7,0-7.86,3.94-21.34a154.28,154.28,0,0,1,7-20.1,1.94,1.94,0,0,0,.29-.46c1.07-1.64,2.87-2.16,5.41-1.54C763.23,147.65,764,148.78,763.32,150.42Zm-3.58-16.56a5.39,5.39,0,0,1,3.88-1.46,5.62,5.62,0,0,1,3.94,1.46,4.87,4.87,0,0,1,0,7.24,5.62,5.62,0,0,1-3.94,1.46,5.39,5.39,0,0,1-3.88-1.46,5,5,0,0,1,0-7.24Z" transform="translate(-90.86 -29)"/></svg>